<?xml version="1.0" encoding="UTF-8" standalone="no"?>
<svg
   id="Layer_1"
   enable-background="new 0 0 512 512"
   viewBox="0 0 256 256"
   version="1.1"
   sodipodi:docname="logo.svg"
   width="256"
   height="256"
   inkscape:version="1.4.2 (ebf0e940d0, 2025-05-08)"
   xmlns:inkscape="http://www.inkscape.org/namespaces/inkscape"
   xmlns:sodipodi="http://sodipodi.sourceforge.net/DTD/sodipodi-0.dtd"
   xmlns="http://www.w3.org/2000/svg"
   xmlns:svg="http://www.w3.org/2000/svg">
  <defs
     id="defs64" />
  <sodipodi:namedview
     id="namedview64"
     pagecolor="#ffffff"
     bordercolor="#000000"
     borderopacity="0.25"
     inkscape:showpageshadow="2"
     inkscape:pageopacity="0.0"
     inkscape:pagecheckerboard="0"
     inkscape:deskcolor="#d1d1d1"
     inkscape:zoom="2.2519531"
     inkscape:cx="255.77797"
     inkscape:cy="256"
     inkscape:window-width="3440"
     inkscape:window-height="1371"
     inkscape:window-x="0"
     inkscape:window-y="0"
     inkscape:window-maximized="1"
     inkscape:current-layer="Layer_1" />
  <g
     id="g49"
     transform="matrix(0.5,0,0,0.5,0,2.75)">
    <path
       d="M 461.388,376.5 C 479.65,342.208 490,303.062 490,261.5 490,126.19 380.31,16.5 245,16.5 109.69,16.5 0,126.19 0,261.5 c 0,40.757 9.952,79.189 27.559,113 0.348,0.668 4.548,2 4.548,2 z"
       fill="#62dbfb"
       id="path1" />
    <path
       d="m 27.559,374.5 c 40.846,78.438 122.888,132 217.441,132 94.553,0 176.595,-53.562 217.441,-132 z"
       fill="#fea713"
       id="path2" />
    <path
       d="m 117.986,39.053 v 256.851 c 0,6.475 -5.249,11.723 -11.723,11.723 H 55.638 C 49.21,307.627 44,302.416 44,295.989 V 63.053 c 0,-17.673 14.327,-32 32,-32 h 33.986 c 4.418,0 8,3.582 8,8 z"
       fill="#2740b0"
       id="path3" />
    <path
       d="m 512,63.053 v 232.851 c 0,6.475 -5.249,11.723 -11.723,11.723 H 93.915 c -6.428,0 -11.638,-5.211 -11.638,-11.638 V 58.814 c 0,-15.332 12.429,-27.761 27.761,-27.761 H 480 c 17.673,0 32,14.327 32,32 z"
       fill="#314dc9"
       id="path4" />
    <path
       d="m 482,69.053 v 276 c 0,4.418 -3.582,8 -8,8 H 82 c -4.418,0 -8,-3.582 -8,-8 v -276 c 0,-4.418 3.582,-8 8,-8 h 392 c 4.418,0 8,3.582 8,8 z"
       fill="#6c7fd8"
       id="path5" />
    <path
       d="m 334,361.053 v 64 c 0,4.418 -3.582,8 -8,8 h -96 c -4.418,0 -8,-3.582 -8,-8 v -64 c 0,-4.418 3.582,-8 8,-8 h 96 c 4.418,0 8,3.582 8,8 z"
       fill="#99e6fc"
       id="path6" />
    <path
       d="m 230,431.053 v 14 c 0,4.418 -3.582,8 -8,8 h -32 c -4.418,0 -8,-3.582 -8,-8 v -14 c 0,-4.418 3.582,-8 8,-8 h 32 c 4.418,0 8,3.582 8,8 z"
       fill="#dff6fd"
       id="path7" />
    <path
       d="m 374,431.053 v 14 c 0,4.418 -3.582,8 -8,8 H 218 c -4.418,0 -8,-3.582 -8,-8 v -14 c 0,-4.418 3.582,-8 8,-8 h 148 c 4.418,0 8,3.582 8,8 z"
       fill="#f2fbff"
       id="path8" />
    <path
       d="M 512,295.484 H 44 v 27.569 l 1.596,1.447 h 464.34 L 512,323.053 Z"
       fill="#4f66d0"
       id="path9" />
    <path
       d="M 78.275,351.053 V 329.266 L 72,323.053 H 44 v 28 c 0,17.673 14.327,32 32,32 h 34.275 c -17.674,0 -32,-14.326 -32,-32 z"
       fill="#c8effe"
       id="path10" />
    <path
       d="m 512,323.053 v 28 c 0,17.673 -14.327,32 -32,32 H 104 c -17.673,0 -32,-14.327 -32,-32 v -28 z"
       fill="#dff6fd"
       id="path11" />
    <circle
       cx="431.12201"
       cy="353.26599"
       fill="#99e6fc"
       r="10"
       id="circle11" />
    <circle
       cx="466.12201"
       cy="353.26599"
       fill="#99e6fc"
       r="10"
       id="circle12" />
    <path
       d="M 257.085,93.926 H 210.96 c -4.418,0 -8,3.582 -8,8 v 155.723 c 0,4.418 3.582,8 8,8 h 46.125 c 4.418,0 8,-3.582 8,-8 V 101.926 c 0,-4.419 -3.582,-8 -8,-8 z"
       fill="#dff6fd"
       id="path12" />
    <path
       d="M 437.571,93.926 H 251.982 c -4.418,0 -8,3.582 -8,8 v 155.723 c 0,4.418 3.582,8 8,8 h 185.589 c 4.418,0 8,-3.582 8,-8 V 101.926 c 0,-4.419 -3.581,-8 -8,-8 z"
       fill="#ffffff"
       id="path13" />
    <path
       d="m 243.468,29.608 h -42.984 c -4.418,0 -8,3.582 -8,8 v 67.584 c 0,4.418 3.582,8 8,8 h 42.984 c 4.418,0 8,-3.582 8,-8 V 37.608 c 0,-4.418 -3.582,-8 -8,-8 z"
       fill="#fe3d97"
       id="path14" />
    <path
       d="M 448.047,29.608 H 240.574 c -4.418,0 -8,3.582 -8,8 v 67.584 c 0,4.418 3.582,8 8,8 h 207.473 c 4.418,0 8,-3.582 8,-8 V 37.608 c 0,-4.418 -3.581,-8 -8,-8 z"
       fill="#fe5ca7"
       id="path15" />
    <path
       d="m 235.766,61.947 c -5.523,0 -10,-4.477 -10,-10 V 28.543 c 0,-5.523 4.477,-10 10,-10 5.523,0 10,4.477 10,10 v 23.404 c 0,5.523 -4.477,10 -10,10 z"
       fill="#fed402"
       id="path16" />
    <path
       d="m 294.766,61.947 c -5.523,0 -10,-4.477 -10,-10 V 28.543 c 0,-5.523 4.477,-10 10,-10 5.523,0 10,4.477 10,10 v 23.404 c 0,5.523 -4.477,10 -10,10 z"
       fill="#fed402"
       id="path17" />
    <path
       d="m 353.766,61.947 c -5.523,0 -10,-4.477 -10,-10 V 28.543 c 0,-5.523 4.477,-10 10,-10 5.523,0 10,4.477 10,10 v 23.404 c 0,5.523 -4.477,10 -10,10 z"
       fill="#fed402"
       id="path18" />
    <path
       d="m 412.766,61.947 c -5.523,0 -10,-4.477 -10,-10 V 28.543 c 0,-5.523 4.477,-10 10,-10 5.523,0 10,4.477 10,10 v 23.404 c 0,5.523 -4.477,10 -10,10 z"
       fill="#fed402"
       id="path19" />
    <path
       d="m 235.766,39.713 c -5.523,0 -10,-4.477 -10,-10 V 15.5 c 0,-5.523 4.477,-10 10,-10 5.523,0 10,4.477 10,10 v 14.213 c 0,5.523 -4.477,10 -10,10 z"
       fill="#fee903"
       id="path20" />
    <path
       d="m 294.766,39.713 c -5.523,0 -10,-4.477 -10,-10 V 15.5 c 0,-5.523 4.477,-10 10,-10 5.523,0 10,4.477 10,10 v 14.213 c 0,5.523 -4.477,10 -10,10 z"
       fill="#fee903"
       id="path21" />
    <path
       d="m 353.766,39.713 c -5.523,0 -10,-4.477 -10,-10 V 15.5 c 0,-5.523 4.477,-10 10,-10 5.523,0 10,4.477 10,10 v 14.213 c 0,5.523 -4.477,10 -10,10 z"
       fill="#fee903"
       id="path22" />
    <path
       d="m 412.766,39.713 c -5.523,0 -10,-4.477 -10,-10 V 15.5 c 0,-5.523 4.477,-10 10,-10 5.523,0 10,4.477 10,10 v 14.213 c 0,5.523 -4.477,10 -10,10 z"
       fill="#fee903"
       id="path23" />
    <path
       d="m 436.16,263.004 c -24.667,-0.947 -44.706,-20.987 -45.654,-45.654 -0.293,-7.629 1.212,-14.877 4.124,-21.356 0.371,-0.825 -0.555,-1.616 -1.328,-1.145 -14.151,8.619 -23.447,24.419 -22.827,42.338 0.859,24.816 21.031,44.989 45.847,45.847 17.912,0.62 33.707,-8.669 42.328,-22.81 0.474,-0.778 -0.322,-1.71 -1.153,-1.337 -6.474,2.908 -13.716,4.41 -21.337,4.117 z"
       fill="#fe3d97"
       id="path24" />
    <path
       d="m 418.01,187.936 c -9.071,0 -17.55,2.54 -24.763,6.947 -4.407,7.213 -6.947,15.691 -6.947,24.763 0,26.269 21.295,47.564 47.564,47.564 9.071,0 17.55,-2.54 24.763,-6.947 4.407,-7.213 6.947,-15.691 6.947,-24.763 -0.001,-26.269 -21.296,-47.564 -47.564,-47.564 z"
       fill="#fe5ca7"
       id="path25" />
    <path
       d="m 437.01,225.5 h -9 v -9 c 0,-5.523 -4.477,-10 -10,-10 -5.523,0 -10,4.477 -10,10 v 9 h -9 c -5.523,0 -10,4.477 -10,10 0,5.523 4.477,10 10,10 h 9 v 9 c 0,5.523 4.477,10 10,10 5.523,0 10,-4.477 10,-10 v -9 h 9 c 5.523,0 10,-4.477 10,-10 0,-5.523 -4.477,-10 -10,-10 z"
       fill="#ffffff"
       id="path26" />
    <path
       d="m 274.555,235.46 h -26.866 c -5.523,0 -10,-4.477 -10,-10 v -21.714 c 0,-5.523 4.477,-10 10,-10 h 26.866 c 5.523,0 10,4.477 10,10 v 21.714 c 0,5.522 -4.477,10 -10,10 z"
       fill="#99e6fc"
       id="path27" />
    <path
       d="m 337.699,235.85 h -26.866 c -5.523,0 -10,-4.477 -10,-10 v -21.714 c 0,-5.523 4.477,-10 10,-10 h 26.866 c 5.523,0 10,4.477 10,10 v 21.714 c 0,5.523 -4.477,10 -10,10 z"
       fill="#99e6fc"
       id="path28" />
    <path
       d="m 274.555,180.136 h -26.866 c -5.523,0 -10,-4.477 -10,-10 v -21.714 c 0,-5.523 4.477,-10 10,-10 h 26.866 c 5.523,0 10,4.477 10,10 v 21.714 c 0,5.523 -4.477,10 -10,10 z"
       fill="#fee903"
       id="path29" />
    <path
       d="m 337.699,180.527 h -26.866 c -5.523,0 -10,-4.477 -10,-10 v -21.714 c 0,-5.523 4.477,-10 10,-10 h 26.866 c 5.523,0 10,4.477 10,10 v 21.714 c 0,5.523 -4.477,10 -10,10 z"
       fill="#fee903"
       id="path30" />
    <path
       d="m 400.842,179.746 h -26.866 c -5.523,0 -10,-4.477 -10,-10 v -21.714 c 0,-5.523 4.477,-10 10,-10 h 26.866 c 5.523,0 10,4.477 10,10 v 21.714 c 0,5.523 -4.477,10 -10,10 z"
       fill="#fee903"
       id="path31" />
    <path
       d="m 220.403,335.537 c -46.675,-1.793 -84.593,-39.711 -86.386,-86.386 -0.554,-14.435 2.293,-28.15 7.803,-40.409 0.702,-1.561 -1.051,-3.058 -2.513,-2.167 -26.776,16.309 -44.366,46.206 -43.193,80.112 1.625,46.958 39.794,85.127 86.752,86.752 33.893,1.173 63.779,-16.403 80.093,-43.161 0.897,-1.471 -0.61,-3.235 -2.182,-2.53 -12.249,5.502 -25.952,8.343 -40.374,7.789 z"
       fill="#fed402"
       id="path32" />
    <path
       d="m 186.06,193.495 c -17.165,0 -33.207,4.806 -46.856,13.144 -8.339,13.648 -13.144,29.691 -13.144,46.856 0,49.706 40.294,90 90,90 17.165,0 33.207,-4.806 46.856,-13.144 8.339,-13.648 13.144,-29.691 13.144,-46.856 0,-49.706 -40.294,-90 -90,-90 z"
       fill="#fee903"
       id="path33" />
    <circle
       cx="186.06"
       cy="283.495"
       fill="#ffffff"
       r="69.401001"
       id="circle33" />
    <g
       fill="#f4d902"
       id="g39">
      <circle
         cx="235.98199"
         cy="283.495"
         r="8"
         id="circle34" />
      <circle
         cx="186.06"
         cy="335.55899"
         r="8"
         id="circle35" />
      <circle
         cx="217.039"
         cy="316.974"
         r="8"
         id="circle36" />
      <circle
         cx="153.33299"
         cy="316.974"
         r="8"
         id="circle37" />
      <circle
         cx="217.039"
         cy="249.911"
         r="8"
         id="circle38" />
      <circle
         cx="153.33299"
         cy="249.911"
         r="8"
         id="circle39" />
    </g>
    <path
       d="m 135.635,283.495 c 0,5.523 4.477,10 10,10 h 51.234 c 5.523,0 10,-4.477 10,-10 0,-5.523 -4.477,-10 -10,-10 h -51.234 c -5.523,0 -10,4.477 -10,10 z"
       fill="#fe9901"
       id="path39" />
    <path
       d="m 186.06,233.069 c -5.523,0 -10,4.477 -10,10 v 51.791 c 0,5.523 4.477,10 10,10 5.523,0 10,-4.477 10,-10 v -51.791 c 0,-5.523 -4.477,-10 -10,-10 z"
       fill="#fe7701"
       id="path40" />
    <path
       d="m 98,121.501 c -4.418,0 -8,-3.582 -8,-8 0,-4.418 3.582,-8 8,-8 4.418,0 8,3.582 8,8 0,4.418 -3.582,8 -8,8 z"
       fill="#f4d902"
       id="path41" />
    <path
       d="m 169.628,121.5 h -41.181 c -4.418,0 -8,-3.582 -8,-8 0,-4.418 3.582,-8 8,-8 h 41.181 c 4.418,0 8,3.582 8,8 0,4.418 -3.582,8 -8,8 z"
       fill="#a2aee6"
       id="path42" />
    <path
       d="m 98,151.501 c -4.418,0 -8,-3.582 -8,-8 0,-4.418 3.582,-8 8,-8 4.418,0 8,3.582 8,8 0,4.418 -3.582,8 -8,8 z"
       fill="#fe5ca7"
       id="path43" />
    <path
       d="m 169.628,151.5 h -41.181 c -4.418,0 -8,-3.582 -8,-8 0,-4.418 3.582,-8 8,-8 h 41.181 c 4.418,0 8,3.582 8,8 0,4.418 -3.582,8 -8,8 z"
       fill="#a2aee6"
       id="path44" />
    <path
       d="m 98,181.501 c -4.418,0 -8,-3.582 -8,-8 0,-4.418 3.582,-8 8,-8 4.418,0 8,3.582 8,8 0,4.418 -3.582,8 -8,8 z"
       fill="#00f2a6"
       id="path45" />
    <path
       d="m 169.628,181.5 h -41.181 c -4.418,0 -8,-3.582 -8,-8 0,-4.418 3.582,-8 8,-8 h 41.181 c 4.418,0 8,3.582 8,8 0,4.418 -3.582,8 -8,8 z"
       fill="#a2aee6"
       id="path46" />
    <path
       d="m 267.994,166.745 -16.971,16.971 c -3.905,3.905 -10.237,3.905 -14.142,0 L 219.91,166.745 c -3.905,-3.905 -3.905,-10.237 0,-14.142 3.905,-3.905 10.237,-3.905 14.142,0 l 9.899,9.899 9.899,-9.899 c 3.905,-3.905 10.237,-3.905 14.142,0 3.905,3.905 3.907,10.237 0.002,14.142 z"
       fill="#fe860a"
       id="path47" />
    <path
       d="m 332.172,166.745 -16.971,16.971 c -3.905,3.905 -10.237,3.905 -14.142,0 l -16.971,-16.971 c -3.905,-3.905 -3.905,-10.237 0,-14.142 3.905,-3.905 10.237,-3.905 14.142,0 l 9.9,9.899 9.899,-9.899 c 3.905,-3.905 10.237,-3.905 14.142,0 3.905,3.905 3.906,10.237 0.001,14.142 z"
       fill="#fe860a"
       id="path48" />
    <path
       d="m 396.948,166.745 -16.971,16.971 c -3.905,3.905 -10.237,3.905 -14.142,0 l -16.971,-16.971 c -3.905,-3.905 -3.905,-10.237 0,-14.142 3.905,-3.905 10.237,-3.905 14.142,0 l 9.9,9.899 9.9,-9.899 c 3.905,-3.905 10.237,-3.905 14.142,0 3.905,3.905 3.905,10.237 0,14.142 z"
       fill="#fe860a"
       id="path49" />
  </g>
  <g
     id="g50"
     transform="matrix(0.5,0,0,0.5,0,2.75)" />
  <g
     id="g51"
     transform="matrix(0.5,0,0,0.5,0,2.75)" />
  <g
     id="g52"
     transform="matrix(0.5,0,0,0.5,0,2.75)" />
  <g
     id="g53"
     transform="matrix(0.5,0,0,0.5,0,2.75)" />
  <g
     id="g54"
     transform="matrix(0.5,0,0,0.5,0,2.75)" />
  <g
     id="g55"
     transform="matrix(0.5,0,0,0.5,0,2.75)" />
  <g
     id="g56"
     transform="matrix(0.5,0,0,0.5,0,2.75)" />
  <g
     id="g57"
     transform="matrix(0.5,0,0,0.5,0,2.75)" />
  <g
     id="g58"
     transform="matrix(0.5,0,0,0.5,0,2.75)" />
  <g
     id="g59"
     transform="matrix(0.5,0,0,0.5,0,2.75)" />
  <g
     id="g60"
     transform="matrix(0.5,0,0,0.5,0,2.75)" />
  <g
     id="g61"
     transform="matrix(0.5,0,0,0.5,0,2.75)" />
  <g
     id="g62"
     transform="matrix(0.5,0,0,0.5,0,2.75)" />
  <g
     id="g63"
     transform="matrix(0.5,0,0,0.5,0,2.75)" />
  <g
     id="g64"
     transform="matrix(0.5,0,0,0.5,0,2.75)" />
</svg>
