<?xml version="1.0" encoding="UTF-8" standalone="no"?>
<svg
   id="Capa_1"
   enable-background="new 0 0 512 512"
   height="128"
   viewBox="0 0 128 128"
   width="128"
   version="1.1"
   sodipodi:docname="icon.svg"
   inkscape:version="1.4.3 (0d15f75042, 2025-12-25)"
   xmlns:inkscape="http://www.inkscape.org/namespaces/inkscape"
   xmlns:sodipodi="http://sodipodi.sourceforge.net/DTD/sodipodi-0.dtd"
   xmlns="http://www.w3.org/2000/svg"
   xmlns:svg="http://www.w3.org/2000/svg">
  <defs
     id="defs46" />
  <sodipodi:namedview
     id="namedview46"
     pagecolor="#ffffff"
     bordercolor="#000000"
     borderopacity="0.25"
     inkscape:showpageshadow="2"
     inkscape:pageopacity="0.0"
     inkscape:pagecheckerboard="0"
     inkscape:deskcolor="#d1d1d1"
     inkscape:zoom="2.2519531"
     inkscape:cx="256"
     inkscape:cy="256"
     inkscape:window-width="3440"
     inkscape:window-height="1371"
     inkscape:window-x="0"
     inkscape:window-y="0"
     inkscape:window-maximized="1"
     inkscape:current-layer="Capa_1" />
  <g
     id="g46"
     transform="matrix(0.25,0,0,0.25,-0.2645,0)">
    <g
       id="g41">
      <path
         d="M 246.23,426.666 H 51.191 c -18.851,0 -34.132,-15.282 -34.132,-34.132 V 358.4 h 261.957 z"
         fill="#d3dcfb"
         id="path1" />
      <path
         d="m 460.825,153.6 v 143.398 95.534 H 51.191 c -18.851,0 -34.132,-15.282 -34.132,-34.133 V 153.6 l 238.95,-85.334 z"
         fill="#ebf5fc"
         id="path2" />
      <g
         fill="#3c58a0"
         id="g15">
        <path
           d="M 77.336,221.867 H 59.203 c -4.418,0 -8,-3.582 -8,-8 v -18.133 c 0,-4.418 3.582,-8 8,-8 h 18.133 c 4.418,0 8,3.582 8,8 v 18.133 c 0,4.418 -3.582,8 -8,8 z"
           id="path3" />
        <path
           d="M 145.603,221.867 H 127.47 c -4.418,0 -8,-3.582 -8,-8 v -18.133 c 0,-4.418 3.582,-8 8,-8 h 18.133 c 4.418,0 8,3.582 8,8 v 18.133 c 0,4.418 -3.582,8 -8,8 z"
           id="path4" />
        <path
           d="m 213.869,221.867 h -18.133 c -4.418,0 -8,-3.582 -8,-8 v -18.133 c 0,-4.418 3.582,-8 8,-8 h 18.133 c 4.418,0 8,3.582 8,8 v 18.133 c 0,4.418 -3.581,8 -8,8 z"
           id="path5" />
        <path
           d="m 282.136,221.867 h -18.133 c -4.418,0 -8,-3.582 -8,-8 v -18.133 c 0,-4.418 3.582,-8 8,-8 h 18.133 c 4.418,0 8,3.582 8,8 v 18.133 c 0,4.418 -3.582,8 -8,8 z"
           id="path6" />
        <path
           d="m 350.391,221.867 h -18.133 c -4.418,0 -8,-3.582 -8,-8 v -18.133 c 0,-4.418 3.582,-8 8,-8 h 18.133 c 4.418,0 8,3.582 8,8 v 18.133 c 0,4.418 -3.581,8 -8,8 z"
           id="path7" />
        <path
           d="m 418.658,221.867 h -18.133 c -4.418,0 -8,-3.582 -8,-8 v -18.133 c 0,-4.418 3.582,-8 8,-8 h 18.133 c 4.418,0 8,3.582 8,8 v 18.133 c 0,4.418 -3.582,8 -8,8 z"
           id="path8" />
        <path
           d="M 77.336,290.133 H 59.203 c -4.418,0 -8,-3.582 -8,-8 V 264 c 0,-4.418 3.582,-8 8,-8 h 18.133 c 4.418,0 8,3.582 8,8 v 18.133 c 0,4.419 -3.582,8 -8,8 z"
           id="path9" />
        <path
           d="M 145.603,290.133 H 127.47 c -4.418,0 -8,-3.582 -8,-8 V 264 c 0,-4.418 3.582,-8 8,-8 h 18.133 c 4.418,0 8,3.582 8,8 v 18.133 c 0,4.419 -3.582,8 -8,8 z"
           id="path10" />
        <path
           d="m 213.869,290.133 h -18.133 c -4.418,0 -8,-3.582 -8,-8 V 264 c 0,-4.418 3.582,-8 8,-8 h 18.133 c 4.418,0 8,3.582 8,8 v 18.133 c 0,4.419 -3.581,8 -8,8 z"
           id="path11" />
        <path
           d="m 290.136,290.133 v -25.6 c 0,-4.713 -3.82,-8.533 -8.533,-8.533 h -17.067 c -4.713,0 -8.533,3.82 -8.533,8.533 V 281.6 c 0,4.713 3.821,8.533 8.533,8.533 z"
           id="path12" />
        <path
           d="M 77.336,358.4 H 59.203 c -4.418,0 -8,-3.582 -8,-8 v -18.133 c 0,-4.418 3.582,-8 8,-8 h 18.133 c 4.418,0 8,3.582 8,8 V 350.4 c 0,4.418 -3.582,8 -8,8 z"
           id="path13" />
        <path
           d="M 145.603,358.4 H 127.47 c -4.418,0 -8,-3.582 -8,-8 v -18.133 c 0,-4.418 3.582,-8 8,-8 h 18.133 c 4.418,0 8,3.582 8,8 V 350.4 c 0,4.418 -3.582,8 -8,8 z"
           id="path14" />
        <path
           d="m 213.869,358.4 h -18.133 c -4.418,0 -8,-3.582 -8,-8 v -18.133 c 0,-4.418 3.582,-8 8,-8 h 18.133 c 4.418,0 8,3.582 8,8 V 350.4 c 0,4.418 -3.581,8 -8,8 z"
           id="path15" />
      </g>
      <path
         d="m 418.417,187.733 h -17.65 c -1.068,0 -2.085,0.21 -3.022,0.579 3.055,1.206 5.219,4.178 5.219,7.662 v 17.65 c 0,3.484 -2.165,6.456 -5.219,7.662 0.937,0.37 1.954,0.58 3.022,0.58 h 17.65 c 4.552,0 8.242,-3.69 8.242,-8.241 v -17.65 c -10e-4,-4.552 -3.691,-8.242 -8.242,-8.242 z"
         fill="#2a428c"
         id="path16" />
      <path
         d="M 350.15,187.733 H 332.5 c -1.068,0 -2.085,0.21 -3.022,0.579 3.055,1.206 5.219,4.178 5.219,7.662 v 17.65 c 0,3.484 -2.165,6.456 -5.219,7.662 0.937,0.37 1.954,0.58 3.022,0.58 h 17.65 c 4.552,0 8.241,-3.69 8.241,-8.241 v -17.65 c 0,-4.552 -3.689,-8.242 -8.241,-8.242 z"
         fill="#2a428c"
         id="path17" />
      <path
         d="m 281.895,187.733 h -17.65 c -1.068,0 -2.085,0.21 -3.022,0.579 3.055,1.206 5.22,4.178 5.22,7.662 v 17.65 c 0,3.484 -2.165,6.456 -5.22,7.662 0.937,0.37 1.954,0.58 3.022,0.58 h 17.65 c 4.552,0 8.242,-3.69 8.242,-8.241 v -17.65 c -10e-4,-4.552 -3.691,-8.242 -8.242,-8.242 z"
         fill="#2a428c"
         id="path18" />
      <path
         d="m 213.628,187.733 h -17.65 c -1.068,0 -2.085,0.21 -3.022,0.579 3.055,1.206 5.22,4.178 5.22,7.662 v 17.65 c 0,3.484 -2.165,6.456 -5.22,7.662 0.937,0.37 1.954,0.58 3.022,0.58 h 17.65 c 4.552,0 8.242,-3.69 8.242,-8.241 v -17.65 c -0.001,-4.552 -3.69,-8.242 -8.242,-8.242 z"
         fill="#2a428c"
         id="path19" />
      <path
         d="m 145.361,187.733 h -17.65 c -1.068,0 -2.085,0.21 -3.022,0.579 3.055,1.206 5.219,4.178 5.219,7.662 v 17.65 c 0,3.484 -2.165,6.456 -5.219,7.662 0.937,0.37 1.954,0.58 3.022,0.58 h 17.65 c 4.552,0 8.242,-3.69 8.242,-8.241 v -17.65 c 0,-4.552 -3.69,-8.242 -8.242,-8.242 z"
         fill="#2a428c"
         id="path20" />
      <path
         d="m 77.095,187.733 h -17.65 c -1.068,0 -2.085,0.21 -3.022,0.579 3.055,1.206 5.22,4.178 5.22,7.662 v 17.65 c 0,3.484 -2.165,6.456 -5.22,7.662 0.937,0.37 1.954,0.58 3.022,0.58 h 17.65 c 4.552,0 8.242,-3.69 8.242,-8.241 v -17.65 c -0.001,-4.552 -3.691,-8.242 -8.242,-8.242 z"
         fill="#2a428c"
         id="path21" />
      <path
         d="m 77.095,256 h -17.65 c -1.068,0 -2.085,0.21 -3.022,0.579 3.055,1.206 5.22,4.178 5.22,7.662 v 17.651 c 0,3.484 -2.165,6.456 -5.22,7.662 0.937,0.37 1.954,0.58 3.022,0.58 h 17.65 c 4.552,0 8.242,-3.69 8.242,-8.241 V 264.242 C 85.336,259.69 81.646,256 77.095,256 Z"
         fill="#2a428c"
         id="path22" />
      <path
         d="m 77.095,324.267 h -17.65 c -1.068,0 -2.085,0.21 -3.022,0.579 3.055,1.206 5.22,4.178 5.22,7.662 v 17.651 c 0,3.484 -2.165,6.456 -5.22,7.662 0.937,0.37 1.954,0.58 3.022,0.58 h 17.65 c 4.552,0 8.242,-3.69 8.242,-8.241 v -17.651 c -0.001,-4.553 -3.691,-8.242 -8.242,-8.242 z"
         fill="#2a428c"
         id="path23" />
      <path
         d="m 145.361,256 h -17.65 c -1.068,0 -2.085,0.21 -3.022,0.579 3.055,1.206 5.219,4.178 5.219,7.662 v 17.651 c 0,3.484 -2.165,6.456 -5.219,7.662 0.937,0.37 1.954,0.58 3.022,0.58 h 17.65 c 4.552,0 8.242,-3.69 8.242,-8.241 v -17.651 c 0,-4.552 -3.69,-8.242 -8.242,-8.242 z"
         fill="#2a428c"
         id="path24" />
      <path
         d="m 145.361,324.267 h -17.65 c -1.068,0 -2.085,0.21 -3.022,0.579 3.055,1.206 5.219,4.178 5.219,7.662 v 17.651 c 0,3.484 -2.165,6.456 -5.219,7.662 0.937,0.37 1.954,0.58 3.022,0.58 h 17.65 c 4.552,0 8.242,-3.69 8.242,-8.241 v -17.651 c 0,-4.553 -3.69,-8.242 -8.242,-8.242 z"
         fill="#2a428c"
         id="path25" />
      <path
         d="m 213.628,256 h -17.65 c -1.068,0 -2.085,0.21 -3.022,0.579 3.055,1.206 5.22,4.178 5.22,7.662 v 17.651 c 0,3.484 -2.165,6.456 -5.22,7.662 0.937,0.37 1.954,0.58 3.022,0.58 h 17.65 c 4.552,0 8.242,-3.69 8.242,-8.241 V 264.242 C 221.869,259.69 218.18,256 213.628,256 Z"
         fill="#2a428c"
         id="path26" />
      <path
         d="m 290.136,290.133 v -25.892 c 0,-4.552 -3.69,-8.241 -8.242,-8.241 h -17.65 c -1.068,0 -2.085,0.21 -3.022,0.579 3.055,1.206 5.22,4.178 5.22,7.662 v 17.651 c 0,3.484 -2.165,6.456 -5.22,7.662 0.937,0.37 1.954,0.58 3.022,0.58 h 25.892 z"
         fill="#2a428c"
         id="path27" />
      <path
         d="m 213.628,324.267 h -17.65 c -1.068,0 -2.085,0.21 -3.022,0.579 3.055,1.206 5.22,4.178 5.22,7.662 v 17.651 c 0,3.484 -2.165,6.456 -5.22,7.662 0.937,0.37 1.954,0.58 3.022,0.58 h 17.65 c 4.552,0 8.242,-3.69 8.242,-8.241 v -17.651 c -0.001,-4.553 -3.69,-8.242 -8.242,-8.242 z"
         fill="#2a428c"
         id="path28" />
      <path
         d="m 437.114,143.721 v 153.277 95.535 h 23.711 V 296.998 153.6 Z"
         fill="#d3dcfb"
         id="path29" />
      <path
         d="M 460.825,153.6 V 68.266 c 0,-18.851 -15.282,-34.132 -34.132,-34.132 H 51.191 c -18.851,0 -34.132,15.281 -34.132,34.132 V 153.6 Z"
         fill="#ff4155"
         id="path30" />
      <g
         id="g36">
        <g
           id="g35">
          <g
             id="g31">
            <path
               d="m 124.609,75.993 h -22.217 c -4.268,0 -7.726,-3.459 -7.726,-7.726 0,-4.267 3.459,-7.726 7.726,-7.726 h 22.217 c 4.268,0 7.726,3.459 7.726,7.726 0,4.267 -3.459,7.726 -7.726,7.726 z"
               fill="#e80054"
               id="path31" />
          </g>
          <g
             id="g32">
            <path
               d="m 179.191,75.993 h -22.217 c -4.268,0 -7.726,-3.459 -7.726,-7.726 0,-4.267 3.459,-7.726 7.726,-7.726 h 22.217 c 4.268,0 7.726,3.459 7.726,7.726 0,4.267 -3.458,7.726 -7.726,7.726 z"
               fill="#e80054"
               id="path32" />
          </g>
          <g
             id="g33">
            <path
               d="m 320.887,75.993 h -22.218 c -4.268,0 -7.726,-3.459 -7.726,-7.726 0,-4.267 3.459,-7.726 7.726,-7.726 h 22.218 c 4.268,0 7.726,3.459 7.726,7.726 0,4.267 -3.458,7.726 -7.726,7.726 z"
               fill="#e80054"
               id="path33" />
          </g>
          <g
             id="g34">
            <path
               d="m 375.47,75.993 h -22.218 c -4.268,0 -7.726,-3.459 -7.726,-7.726 0,-4.267 3.459,-7.726 7.726,-7.726 h 22.218 c 4.268,0 7.726,3.459 7.726,7.726 0,4.267 -3.459,7.726 -7.726,7.726 z"
               fill="#e80054"
               id="path34" />
          </g>
        </g>
      </g>
      <path
         d="m 162.125,64 c 0,11.782 -9.551,21.333 -21.333,21.333 -11.782,0 -21.333,-9.551 -21.333,-21.333 V 21.333 C 119.458,9.551 129.009,0 140.791,0 c 11.782,0 21.333,9.551 21.333,21.333 V 64 Z"
         fill="#ebf5fc"
         id="path36" />
      <path
         d="m 358.403,64 c 0,11.782 -9.551,21.333 -21.333,21.333 -11.782,0 -21.334,-9.551 -21.334,-21.333 V 21.333 C 315.736,9.551 325.287,0 337.069,0 c 11.782,0 21.333,9.551 21.333,21.333 V 64 Z"
         fill="#ebf5fc"
         id="path37" />
      <path
         d="m 337.069,0 c -4.38,0 -8.448,1.324 -11.836,3.588 5.725,3.826 9.498,10.343 9.498,17.746 V 64 c 0,7.402 -3.773,13.92 -9.498,17.746 3.387,2.263 7.456,3.588 11.836,3.588 11.782,0 21.333,-9.551 21.333,-21.333 V 21.333 C 358.403,9.551 348.852,0 337.069,0 Z"
         fill="#d3dcfb"
         id="path38" />
      <path
         d="m 140.791,0 c -4.38,0 -8.448,1.324 -11.836,3.588 5.725,3.826 9.498,10.343 9.498,17.746 V 64 c 0,7.402 -3.773,13.92 -9.498,17.746 3.387,2.263 7.456,3.588 11.836,3.588 11.782,0 21.333,-9.551 21.333,-21.333 V 21.333 C 162.125,9.551 152.574,0 140.791,0 Z"
         fill="#d3dcfb"
         id="path39" />
      <path
         d="M 426.693,34.133 H 402.99 c 18.851,0 34.132,15.281 34.132,34.132 V 153.6 h 23.702 V 68.266 C 460.825,49.415 445.543,34.133 426.693,34.133 Z"
         fill="#e80054"
         id="path40" />
      <path
         d="m 17.058,111.74 h 443.767 v 15.453 H 17.058 Z"
         fill="#e80054"
         id="path41" />
    </g>
    <circle
       cx="366.94199"
       cy="384"
       fill="#4fabf7"
       r="128"
       id="circle41" />
    <circle
       cx="366.94199"
       cy="384"
       fill="#ebf5fc"
       r="93.866997"
       id="circle42" />
    <g
       id="g43">
      <g
         id="g42">
        <path
           d="m 366.942,374.659 c -4.268,0 -7.726,-3.459 -7.726,-7.726 v -42.667 c 0,-4.267 3.459,-7.726 7.726,-7.726 4.268,0 7.726,3.459 7.726,7.726 v 42.667 c 0,4.267 -3.459,7.726 -7.726,7.726 z"
           fill="#3c58a0"
           id="path42" />
      </g>
    </g>
    <g
       id="g45">
      <g
         id="g44">
        <path
           d="m 409.609,391.726 h -25.601 c -4.268,0 -7.726,-3.459 -7.726,-7.726 0,-4.267 3.459,-7.726 7.726,-7.726 h 25.601 c 4.268,0 7.726,3.459 7.726,7.726 0,4.267 -3.459,7.726 -7.726,7.726 z"
           fill="#3c58a0"
           id="path43" />
      </g>
    </g>
    <path
       d="m 366.942,256 c -3.995,0 -7.945,0.193 -11.847,0.551 65.137,5.979 116.152,60.752 116.152,127.449 0,66.697 -51.016,121.47 -116.153,127.449 3.902,0.358 7.852,0.551 11.847,0.551 70.692,0 128,-57.308 128,-128 0,-70.692 -57.307,-128 -127.999,-128 z"
       fill="#1886ea"
       id="path45" />
    <path
       d="m 366.942,290.133 c -4.01,0 -7.961,0.253 -11.839,0.741 46.252,5.821 82.028,45.295 82.028,93.126 0,47.831 -35.776,87.305 -82.028,93.126 3.878,0.488 7.829,0.741 11.839,0.741 51.841,0 93.867,-42.026 93.867,-93.867 0,-51.841 -42.026,-93.867 -93.867,-93.867 z"
       fill="#d3dcfb"
       id="path46" />
    <circle
       cx="366.94199"
       cy="384"
       fill="#ffdd40"
       r="17.066999"
       id="circle46" />
  </g>
</svg>
